<?xml version="1.0" encoding="utf-8"?>
<!-- Generator: Adobe Illustrator 21.1.0, SVG Export Plug-In . SVG Version: 6.00 Build 0)  -->
<svg version="1.1" xmlns="http://www.w3.org/2000/svg" xmlns:xlink="http://www.w3.org/1999/xlink" x="0px" y="0px"
	 viewBox="0 0 320 320" style="enable-background:new 0 0 320 320;" xml:space="preserve">
<style type="text/css">
	.st0{display:none;}
	.st1{display:inline;}
	.st2{fill:#FFFFFF;}
</style>
<g id="Layer_1" class="st0">
	<g class="st1">
		<g>
			<path class="st2" d="M306.4,306.4c-97.1,0-194.3,0-291.4,0c0-97.1,0-194.3,0-291.4c97.1,0,194.3,0,291.4,0
				C306.4,112.1,306.4,209.3,306.4,306.4z M158,299.1C235.1,300.3,298,239,299,162.7c1-77.7-60.5-140.3-137.8-140.9
				C85.3,21.2,22.5,82.9,21.8,158.7C21.1,235.4,82,297.7,158,299.1z"/>
			<path d="M158,299.1c-76-1.4-136.9-63.7-136.2-140.4C22.5,82.9,85.3,21.2,161.3,21.8c77.3,0.6,138.8,63.2,137.8,140.9
				C298,239,235.1,300.3,158,299.1z M276.4,160.4c0-63.8-52-115.8-115.8-115.9c-63.9-0.1-116,51.9-116,115.8
				c-0.1,63.8,52,116,115.9,116C224.3,276.4,276.4,224.3,276.4,160.4z"/>
			<path class="st2" d="M276.4,160.4c0,63.9-52,115.9-115.9,115.9c-63.9,0-115.9-52.1-115.9-116c0.1-63.9,52.2-115.9,116-115.8
				C224.3,44.6,276.3,96.6,276.4,160.4z M74.7,160.3c0,8.4,0,16.8,0,25.2c0,3.5,1.3,5.9,4.2,7.9c25.6,17,51.1,34,76.6,51.1
				c3.4,2.2,6.5,2.2,9.9,0c25.5-17.1,51.1-34.1,76.6-51.1c2.9-1.9,4.2-4.5,4.2-7.9c0-16.6-0.1-33.2,0-49.8c0-3.5-1.3-6.1-4.3-8.1
				c-25.4-16.9-50.8-33.9-76.3-50.8c-4-2.7-6.4-2.7-10.4,0c-25.4,16.9-50.7,33.8-76.1,50.6c-3.2,2.1-4.5,4.7-4.5,8.5
				C74.8,144,74.7,152.2,74.7,160.3z"/>
			<path d="M74.7,160.3c0-8.1,0.1-16.3,0-24.4c0-3.7,1.3-6.4,4.5-8.5c25.4-16.8,50.7-33.8,76.1-50.6c4-2.7,6.4-2.7,10.4,0
				c25.4,16.9,50.8,33.9,76.3,50.8c3,2,4.3,4.5,4.3,8.1c-0.1,16.6,0,33.2,0,49.8c0,3.4-1.3,6-4.2,7.9c-25.6,17-51.1,34-76.6,51.1
				c-3.4,2.2-6.5,2.3-9.9,0c-25.5-17.1-51.1-34.1-76.6-51.1c-2.9-1.9-4.2-4.4-4.2-7.9C74.8,177.1,74.7,168.7,74.7,160.3z
				 M95.4,134.3c8.5,5.7,16.6,11.2,24.9,16.6c0.5,0.3,1.8,0,2.5-0.4c9.6-6.3,19-12.7,28.6-19c1.3-0.8,1.8-1.7,1.8-3.3
				c-0.1-9.9,0-19.8,0-29.8c0-0.7-0.1-1.3-0.2-2.4C133.6,108.9,114.6,121.5,95.4,134.3z M225.5,134.3
				c-19.2-12.8-38.2-25.5-57.4-38.2c-0.2,0.5-0.3,0.8-0.3,1c0,10.6,0,21.3,0,31.9c0,0.7,0.6,1.6,1.3,2.1
				c9.7,6.6,19.5,13.1,29.4,19.6c0.6,0.4,1.8,0.4,2.5,0c2.8-1.7,5.4-3.5,8.1-5.3C214.5,141.8,219.9,138.1,225.5,134.3z M152.8,224.8
				c0.1-0.6,0.2-0.9,0.2-1.1c0-10.6,0.1-21.1,0-31.7c0-0.8-0.8-1.9-1.5-2.4c-9.5-6.5-19.2-12.8-28.7-19.3c-1.3-0.9-2.2-0.8-3.4,0.1
				c-5.3,3.6-10.7,7.2-16.1,10.8c-2.6,1.7-5.2,3.5-8,5.4C114.6,199.4,133.6,212,152.8,224.8z M225.5,186.6
				c-8.5-5.7-16.6-11.2-24.9-16.5c-0.5-0.3-1.8,0-2.5,0.4c-9.6,6.3-19,12.7-28.6,19c-1.4,0.9-1.8,2-1.8,3.6c0.1,9.8,0,19.5,0,29.3
				c0,0.8,0.1,1.5,0.2,2.7C187.3,212.1,206.3,199.4,225.5,186.6z M186.5,160.5c-8.6-5.7-16.9-11.3-25.3-16.9
				c-0.4-0.3-1.3-0.2-1.7,0.1c-8.3,5.5-16.6,11.1-25.1,16.8c8.6,5.7,16.9,11.3,25.3,16.9c0.4,0.3,1.3,0.2,1.7-0.1
				C169.7,171.7,178,166.2,186.5,160.5z M89.6,172.7c6.3-4.2,12.2-8.1,18.3-12.2c-6.2-4.1-12.1-8.1-18.3-12.2
				C89.6,156.5,89.6,164.4,89.6,172.7z M231.2,172.6c0-8.3,0-16.1,0-24.3c-6.2,4.1-12.1,8.1-18.2,12.2
				C219.2,164.6,225.1,168.5,231.2,172.6z"/>
			<path class="st2" d="M95.4,134.3c19.3-12.8,38.2-25.5,57.5-38.3c0.1,1,0.2,1.7,0.2,2.4c0,9.9,0,19.8,0,29.8
				c0,1.6-0.5,2.5-1.8,3.3c-9.5,6.3-19,12.7-28.6,19c-0.7,0.4-1.9,0.7-2.5,0.4C112,145.5,103.9,140,95.4,134.3z"/>
			<path class="st2" d="M225.5,134.3c-5.6,3.8-11.1,7.4-16.5,11c-2.7,1.8-5.3,3.7-8.1,5.3c-0.6,0.4-1.9,0.4-2.5,0
				c-9.8-6.5-19.6-13-29.4-19.6c-0.6-0.4-1.2-1.4-1.3-2.1c-0.1-10.6,0-21.3,0-31.9c0-0.2,0.1-0.4,0.3-1
				C187.3,108.9,206.3,121.5,225.5,134.3z"/>
			<path class="st2" d="M152.8,224.8c-19.2-12.8-38.2-25.5-57.4-38.3c2.8-1.9,5.4-3.6,8-5.4c5.4-3.6,10.7-7.1,16.1-10.8
				c1.2-0.8,2.1-1,3.4-0.1c9.5,6.5,19.1,12.8,28.7,19.3c0.7,0.5,1.5,1.6,1.5,2.4c0.1,10.6,0.1,21.1,0,31.7
				C153,224,152.9,224.2,152.8,224.8z"/>
			<path class="st2" d="M225.5,186.6c-19.3,12.8-38.2,25.5-57.5,38.3c-0.1-1.1-0.2-1.9-0.2-2.7c0-9.8,0-19.5,0-29.3
				c0-1.6,0.4-2.6,1.8-3.6c9.6-6.3,19-12.7,28.6-19c0.6-0.4,1.9-0.7,2.5-0.4C208.9,175.4,217.1,180.9,225.5,186.6z"/>
			<path class="st2" d="M186.5,160.5c-8.5,5.7-16.8,11.3-25.1,16.8c-0.4,0.3-1.3,0.3-1.7,0.1c-8.4-5.5-16.7-11.1-25.3-16.9
				c8.5-5.7,16.8-11.3,25.1-16.8c0.4-0.3,1.3-0.4,1.7-0.1C169.6,149.1,178,154.7,186.5,160.5z"/>
			<path class="st2" d="M89.6,172.7c0-8.3,0-16.2,0-24.5c6.2,4.1,12.1,8.1,18.3,12.2C101.8,164.6,95.9,168.5,89.6,172.7z"/>
			<path class="st2" d="M231.2,172.6c-6.1-4.1-12-8-18.2-12.2c6.1-4.1,12-8,18.2-12.2C231.2,156.5,231.2,164.4,231.2,172.6z"/>
		</g>
	</g>
</g>
<g id="Layer_2">
	<g>
		<g>
			<path d="M51,160.3c0-15-0.2-29.9,0.7-44.9c0.8-13.3,3.2-26.2,10.9-37.5c10-14.6,24.2-22.4,41.5-24.9c11.2-1.6,22.6-1.8,33.9-1.8
				c17.9,0,35.8-0.2,53.7,0.1c11.4,0.2,22.8,0.5,34,3.5c22.8,6.1,39.7,25.8,42.3,49.2c1.3,11.4,1.8,22.8,1.8,34.2
				c0,18.2,0.2,36.4-0.2,54.6c-0.2,11.8-0.5,23.7-4.1,35.2c-6.8,21.9-26.2,37.7-49,40.1c-25.4,2.7-50.9,1.7-76.3,1.6
				c-12.3,0-24.7,0.2-37-1.8c-21.4-3.6-37.3-14.5-46-34.8c-3.6-8.5-4.9-17.6-5.4-26.7C50.9,190.8,50.9,175.5,51,160.3z M249.5,154.8
				c-0.4-12.3,0.9-30.1-1.2-47.8c-2.1-16.9-12.2-28.8-28.6-33.3c-7.1-2-14.4-2.4-21.6-2.4c-23.3-0.2-46.6-0.1-69.9-0.1
				c-7.2,0-14.3,0.2-21.4,1.4c-16,2.5-27.4,10.7-32.4,26.7c-2.4,7.5-2.9,15.3-2.9,23.1c-0.2,23.1-0.1,46.2-0.1,69.2
				c0,8.4,0.2,16.8,1.9,25.1c2.5,12.6,9,22.1,20.9,27.7c9.4,4.5,19.5,4.9,29.6,5c24.2,0.3,48.5,0.1,72.7-0.1
				c5.9-0.1,11.8-0.3,17.7-1.3c17.3-2.8,28.8-12.1,33.2-29.4c1.8-6.9,2.1-14,2.2-21C249.7,185.3,249.5,172.8,249.5,154.8z"/>
			<path d="M160.2,216.7c-30.9,0-56.2-25.5-56.1-56.6c0.1-30.7,25.7-56,56.5-56c30.8,0.1,56.1,25.5,56.1,56.3
				C216.7,191.4,191.2,216.7,160.2,216.7z M196.5,160.4c0.6-19-15.9-36.1-35.9-36.2c-19.6-0.1-36.2,16.5-36.3,35.9
				c-0.1,20.2,16.9,36.3,35.8,36.5C179.8,196.8,197.2,179.8,196.5,160.4z"/>
			<path d="M231.7,102.2c0,7.5-6,13.5-13.4,13.4c-7.2-0.1-13.1-6.2-13.1-13.5c0-7.2,6.1-13,13.5-13
				C225.9,89.1,231.7,94.9,231.7,102.2z"/>
		</g>
	</g>
</g>
</svg>
