<?xml version="1.0" encoding="utf-8"?>
<!-- Generator: Adobe Illustrator 21.1.0, SVG Export Plug-In . SVG Version: 6.00 Build 0)  -->
<svg version="1.1" id="Layer_2" xmlns="http://www.w3.org/2000/svg" xmlns:xlink="http://www.w3.org/1999/xlink" x="0px" y="0px"
	 viewBox="0 0 320 320" style="enable-background:new 0 0 320 320;" xml:space="preserve">
<style type="text/css">
	.st0{fill:#FFFFFF;}
</style>
<g>
	<g>
		<path class="st0" d="M270.2,268.4c-72.2,0-144.5,0-216.7,0c0-71.9,0-143.8,0-215.8c72.2,0,144.5,0,216.7,0
			C270.2,124.6,270.2,196.5,270.2,268.4z M267.6,161.8c0-29.6,0-59.2,0-88.8c0-2.1,0-4.1-0.2-6.2c-0.5-5.7-3.6-9.4-9.3-10.5
			c-2.5-0.5-5-0.6-7.6-0.6c-57.3,0-114.5,0-171.8,0c-3.7,0-7.3-0.1-11,0c-8.3,0.4-12.5,4.6-13,12.8c-0.1,1,0,1.9,0,2.9
			c0,60,0,119.9,0,179.9c0,1.9,0.1,3.8,0.4,5.7c0.9,5.6,4.4,9,10.1,9.8c2,0.3,4.1,0.3,6.2,0.3c60,0,119.9,0,179.9,0
			c12.6,0,16.3-3.6,16.3-16.1C267.7,221.3,267.6,191.5,267.6,161.8z"/>
		<path d="M267.6,161.8c0,29.7,0,59.5,0,89.2c0,12.5-3.6,16.1-16.3,16.1c-60,0-119.9,0-179.9,0c-2.1,0-4.1,0-6.2-0.3
			c-5.7-0.8-9.2-4.1-10.1-9.8c-0.3-1.9-0.4-3.8-0.4-5.7c0-60,0-119.9,0-179.9c0-1,0-1.9,0-2.9c0.5-8.2,4.7-12.4,13-12.8
			c3.7-0.2,7.3,0,11,0c57.3,0,114.5,0,171.8,0c2.5,0,5.1,0.1,7.6,0.6c5.7,1.1,8.8,4.8,9.3,10.5c0.2,2.1,0.2,4.1,0.2,6.2
			C267.6,102.6,267.6,132.2,267.6,161.8z M161.7,61.5c-30.5,0-61.1,0-91.6,0c-7.6,0-9.6,2.1-9.6,9.7c0,60.1,0,120.3,0,180.4
			c0,8,1.9,10,9.8,10c60.8,0,121.5,0,182.3,0c7.6,0,9.6-2,9.6-9.7c0-60.1,0-120.3,0-180.4c0-8.2-1.9-10-10.2-10
			C221.8,61.5,191.7,61.5,161.7,61.5z"/>
		<path class="st0" d="M161.7,61.5c30.1,0,60.1,0,90.2,0c8.3,0,10.2,1.7,10.2,10c0,60.1,0,120.3,0,180.4c0,7.7-2,9.7-9.6,9.7
			c-60.8,0-121.5,0-182.3,0c-7.8,0-9.8-2-9.8-10c0-60.1,0-120.3,0-180.4c0-7.6,2-9.6,9.6-9.7C100.6,61.4,131.1,61.5,161.7,61.5z
			 M137.8,138.5c0,32,0,63.7,0,95.2c9.9,0,19.5,0,29.3,0c0-2.2,0-3.9,0-5.7c0-16.7-0.1-33.4,0-50.1c0.1-9.9,7.3-17.7,16.5-18.3
			c11.1-0.7,18.4,5.1,19.8,15.9c0.4,2.7,0.6,5.4,0.6,8.1c0.1,15.1,0,30.2,0,45.3c0,1.7,0.2,3.3,0.3,4.8c10.2,0,19.8,0,29.5,0
			c0-19,0.1-37.6-0.1-56.2c-0.1-4.9-0.7-9.9-1.8-14.6c-3.2-13.9-11-24-25.4-27.3c-14.2-3.2-27.2-1.2-36.9,11.2
			c-0.6,0.8-1.4,1.4-2.9,2.7c0-4.3,0-7.5,0-11.1C156.9,138.5,147.4,138.5,137.8,138.5z M118.3,138.8c-9.8,0-19.1,0-28.8,0
			c-0.1,2.1-0.3,4-0.3,5.8c0,14.8,0,29.5,0,44.3c0,13.5-0.1,27,0.1,40.5c0,1.6,1.5,4.5,2.3,4.5c8.8,0.3,17.7,0.2,26.8,0.2
			C118.3,202.2,118.3,170.7,118.3,138.8z M118.5,104.9c0.1-9.4-5.8-15.3-15-15.3c-9,0-15.2,6-15.1,14.8c0,8.9,6,15,14.9,15.2
			C112.2,119.7,118.5,113.7,118.5,104.9z"/>
		<path d="M137.8,138.5c9.6,0,19.1,0,29,0c0,3.5,0,6.8,0,11.1c1.5-1.4,2.3-2,2.9-2.7c9.7-12.4,22.7-14.4,36.9-11.2
			c14.4,3.3,22.2,13.4,25.4,27.3c1.1,4.8,1.7,9.7,1.8,14.6c0.2,18.6,0.1,37.2,0.1,56.2c-9.7,0-19.3,0-29.5,0
			c-0.1-1.5-0.3-3.2-0.3-4.8c0-15.1,0-30.2,0-45.3c0-2.7-0.2-5.4-0.6-8.1c-1.5-10.9-8.7-16.6-19.8-15.9c-9.2,0.6-16.4,8.4-16.5,18.3
			c-0.1,16.7,0,33.4,0,50.1c0,1.7,0,3.5,0,5.7c-9.8,0-19.4,0-29.3,0C137.8,202.2,137.8,170.5,137.8,138.5z"/>
		<path d="M118.3,138.8c0,31.8,0,63.4,0,95.4c-9.1,0-17.9,0.1-26.8-0.2c-0.9,0-2.3-2.9-2.3-4.5c-0.2-13.5-0.1-27-0.1-40.5
			c0-14.8,0-29.5,0-44.3c0-1.9,0.2-3.7,0.3-5.8C99.1,138.8,108.4,138.8,118.3,138.8z"/>
		<path d="M118.5,104.9c-0.1,8.8-6.3,14.8-15.3,14.6c-8.9-0.1-14.9-6.2-14.9-15.2c0-8.8,6.1-14.8,15.1-14.8
			C112.8,89.5,118.6,95.5,118.5,104.9z"/>
	</g>
</g>
</svg>
