<?xml version="1.0" encoding="utf-8"?>
<!-- Generator: Adobe Illustrator 21.1.0, SVG Export Plug-In . SVG Version: 6.00 Build 0)  -->
<svg version="1.1" id="Layer_1" xmlns="http://www.w3.org/2000/svg" xmlns:xlink="http://www.w3.org/1999/xlink" x="0px" y="0px"
	 viewBox="0 0 320 320" style="enable-background:new 0 0 320 320;" xml:space="preserve">
<g>
	<g id="XMLID_1_">
		<g>
			<path d="M292.8,79.8c0,0.3,0,0.6,0,0.9c-7.1,9.5-14.9,18.4-24.4,25.6c-1.5,1.2-2,2.6-2.1,4.5c0,4.2-0.2,8.5-0.5,12.7
				c-3.8,47.7-23.9,86.9-62.2,116c-47.5,36.1-119.3,38.9-169.9,7.4c-0.9-0.6-2.2-0.9-2.5-2.8c27.9,2.2,53.4-4.3,76.9-21.7
				c-3.4-0.6-5.6-1-7.8-1.4c-18.6-3.9-31.7-14.8-39.6-32c-2-4.3-1.5-4.8,3.1-4.4c7.9,0.8,12.5,0.3,16.1-1.7
				c-1.3-0.4-2.4-0.8-3.4-1.2c-20.1-7.7-32.1-22.2-35.9-43.4c-0.4-2.4-1.5-5.4,0.4-7.1c2-1.8,4.2,0.9,6.3,1.5
				c4.6,1.4,9.1,3.2,14.8,2.9c-2.2-2.2-3.7-3.7-5.3-5.3c-16.5-16.3-21-40.6-11.3-61.4c2-4.4,2.9-4.5,6-0.9
				c5.3,6.2,11.2,11.9,17.5,17.2c24.6,20.4,52.7,32,84.5,35c3.8,0.4,5-0.4,4.6-4.7c-2-18.3,3.4-34.2,17.1-46.7
				c21-19.1,50-19.3,72.3-0.9c3.2,2.7,6.1,3.3,10,2.2c8.3-2.5,16.4-5.4,24-9.5c1-0.5,2.1-1.7,3.1-0.7s-0.1,2.2-0.5,3.2
				c-2.5,5.8-5.7,11.2-10.1,15.8c-2.7,2.8-5.7,5.3-9.2,8.6C275.2,86.4,283.9,82.9,292.8,79.8z"/>
		</g>
		<g>
		</g>
	</g>
</g>
</svg>
